<mxfile host="app.diagrams.net" modified="2021-03-02T03:33:16.610Z" agent="5.0 (Windows NT 10.0; Win64; x64) AppleWebKit/537.36 (KHTML, like Gecko) Chrome/88.0.4324.190 Safari/537.36" etag="OMxyfb7lkWKtnQz_v374" version="14.4.3" type="github">
  <diagram id="4RjPIjwG-TT_1gQvUgw8" name="Page-1">
    <mxGraphModel dx="1944" dy="590" grid="1" gridSize="10" guides="1" tooltips="1" connect="1" arrows="1" fold="1" page="1" pageScale="1" pageWidth="827" pageHeight="1169" math="0" shadow="0">
      <root>
        <mxCell id="0" />
        <mxCell id="1" parent="0" />
        <mxCell id="silThLo5Kyy1Nj9krNFx-1" value="&lt;font style=&quot;font-size: 14px&quot;&gt;&lt;b&gt;数据噪音&lt;/b&gt;&lt;/font&gt;" style="shape=datastore;whiteSpace=wrap;html=1;fillColor=#e3c800;strokeColor=#B09500;" vertex="1" parent="1">
          <mxGeometry x="9" y="729" width="60" height="60" as="geometry" />
        </mxCell>
        <mxCell id="silThLo5Kyy1Nj9krNFx-4" value="&lt;font style=&quot;font-size: 16px&quot;&gt;&lt;b&gt;性能目标&lt;/b&gt;&lt;/font&gt;" style="text;html=1;strokeColor=#6D1F00;fillColor=#a0522d;align=center;verticalAlign=middle;whiteSpace=wrap;rounded=0;fontColor=#ffffff;" vertex="1" parent="1">
          <mxGeometry x="680" y="940" width="120" height="40" as="geometry" />
        </mxCell>
        <mxCell id="silThLo5Kyy1Nj9krNFx-6" value="&lt;font style=&quot;font-size: 14px&quot;&gt;&lt;b&gt;数据跨域&lt;/b&gt;&lt;/font&gt;" style="shape=datastore;whiteSpace=wrap;html=1;fillColor=#6d8764;strokeColor=#3A5431;fontColor=#ffffff;" vertex="1" parent="1">
          <mxGeometry x="9" y="460" width="60" height="60" as="geometry" />
        </mxCell>
        <mxCell id="silThLo5Kyy1Nj9krNFx-7" value="&lt;font style=&quot;font-size: 14px&quot;&gt;&lt;b&gt;类别众多&lt;/b&gt;&lt;/font&gt;" style="shape=datastore;whiteSpace=wrap;html=1;fillColor=#fa6800;strokeColor=#C73500;" vertex="1" parent="1">
          <mxGeometry x="9" y="210" width="60" height="60" as="geometry" />
        </mxCell>
        <mxCell id="silThLo5Kyy1Nj9krNFx-8" value="&lt;font style=&quot;font-size: 16px&quot;&gt;&lt;b&gt;研究框架&lt;/b&gt;&lt;/font&gt;" style="text;html=1;strokeColor=#6D1F00;fillColor=#a0522d;align=center;verticalAlign=middle;whiteSpace=wrap;rounded=0;fontColor=#ffffff;" vertex="1" parent="1">
          <mxGeometry x="380" y="945" width="150" height="40" as="geometry" />
        </mxCell>
        <mxCell id="silThLo5Kyy1Nj9krNFx-10" value="&lt;font style=&quot;font-size: 16px&quot;&gt;&lt;b&gt;鲁棒性&lt;/b&gt;&lt;/font&gt;" style="ellipse;whiteSpace=wrap;html=1;align=center;newEdgeStyle={&quot;edgeStyle&quot;:&quot;entityRelationEdgeStyle&quot;,&quot;startArrow&quot;:&quot;none&quot;,&quot;endArrow&quot;:&quot;none&quot;,&quot;segment&quot;:10,&quot;curved&quot;:1};treeFolding=1;treeMoving=1;fillColor=#e3c800;strokeColor=#B09500;" vertex="1" parent="1">
          <mxGeometry x="689" y="735" width="100" height="40" as="geometry" />
        </mxCell>
        <mxCell id="silThLo5Kyy1Nj9krNFx-11" value="&lt;font style=&quot;font-size: 15px&quot;&gt;&lt;b&gt;任务自适应&lt;/b&gt;&lt;/font&gt;" style="ellipse;whiteSpace=wrap;html=1;align=center;newEdgeStyle={&quot;edgeStyle&quot;:&quot;entityRelationEdgeStyle&quot;,&quot;startArrow&quot;:&quot;none&quot;,&quot;endArrow&quot;:&quot;none&quot;,&quot;segment&quot;:10,&quot;curved&quot;:1};treeFolding=1;treeMoving=1;fillColor=#6d8764;strokeColor=#3A5431;fontColor=#ffffff;" vertex="1" parent="1">
          <mxGeometry x="689" y="470" width="100" height="40" as="geometry" />
        </mxCell>
        <mxCell id="silThLo5Kyy1Nj9krNFx-12" value="&lt;font style=&quot;font-size: 16px&quot;&gt;&lt;b&gt;分类规模化&lt;/b&gt;&lt;/font&gt;" style="ellipse;whiteSpace=wrap;html=1;align=center;newEdgeStyle={&quot;edgeStyle&quot;:&quot;entityRelationEdgeStyle&quot;,&quot;startArrow&quot;:&quot;none&quot;,&quot;endArrow&quot;:&quot;none&quot;,&quot;segment&quot;:10,&quot;curved&quot;:1};treeFolding=1;treeMoving=1;fillColor=#fa6800;strokeColor=#C73500;" vertex="1" parent="1">
          <mxGeometry x="689" y="220" width="100" height="40" as="geometry" />
        </mxCell>
        <mxCell id="silThLo5Kyy1Nj9krNFx-20" value="&lt;font style=&quot;font-size: 16px&quot;&gt;任务级别的学习表示&lt;/font&gt;" style="swimlane;html=1;startSize=20;horizontal=1;childLayout=treeLayout;horizontalTree=0;resizable=0;containerType=tree;fillColor=#6d8764;strokeColor=#3A5431;fontColor=#ffffff;" vertex="1" parent="1">
          <mxGeometry x="319" y="410" width="280" height="190" as="geometry" />
        </mxCell>
        <mxCell id="silThLo5Kyy1Nj9krNFx-21" value="&lt;font style=&quot;font-size: 14px&quot;&gt;&lt;b&gt;任务类别表示&lt;/b&gt;&lt;/font&gt;" style="whiteSpace=wrap;html=1;fillColor=#6d8764;strokeColor=#3A5431;fontColor=#ffffff;" vertex="1" parent="silThLo5Kyy1Nj9krNFx-20">
          <mxGeometry x="90" y="40" width="100" height="40" as="geometry" />
        </mxCell>
        <mxCell id="silThLo5Kyy1Nj9krNFx-22" value="&lt;font style=&quot;font-size: 14px&quot;&gt;&lt;b&gt;基于嵌入重分布的任务特征提取&lt;/b&gt;&lt;/font&gt;" style="whiteSpace=wrap;html=1;fillColor=#6d8764;strokeColor=#3A5431;fontColor=#ffffff;" vertex="1" parent="silThLo5Kyy1Nj9krNFx-20">
          <mxGeometry x="20" y="130" width="100" height="40" as="geometry" />
        </mxCell>
        <mxCell id="silThLo5Kyy1Nj9krNFx-23" value="" style="edgeStyle=elbowEdgeStyle;elbow=vertical;html=1;rounded=0;strokeColor=#0B4D6A;" edge="1" parent="silThLo5Kyy1Nj9krNFx-20" source="silThLo5Kyy1Nj9krNFx-21" target="silThLo5Kyy1Nj9krNFx-22">
          <mxGeometry relative="1" as="geometry" />
        </mxCell>
        <mxCell id="silThLo5Kyy1Nj9krNFx-24" value="&lt;font style=&quot;font-size: 14px&quot;&gt;&lt;b&gt;基于任务特征的类别表示&lt;/b&gt;&lt;/font&gt;" style="whiteSpace=wrap;html=1;fillColor=#6d8764;strokeColor=#3A5431;fontColor=#ffffff;" vertex="1" parent="silThLo5Kyy1Nj9krNFx-20">
          <mxGeometry x="160" y="130" width="100" height="40" as="geometry" />
        </mxCell>
        <mxCell id="silThLo5Kyy1Nj9krNFx-25" value="" style="edgeStyle=elbowEdgeStyle;elbow=vertical;html=1;rounded=0;strokeColor=#0B4D6A;" edge="1" parent="silThLo5Kyy1Nj9krNFx-20" source="silThLo5Kyy1Nj9krNFx-21" target="silThLo5Kyy1Nj9krNFx-24">
          <mxGeometry relative="1" as="geometry" />
        </mxCell>
        <mxCell id="silThLo5Kyy1Nj9krNFx-26" value="&lt;font style=&quot;font-size: 16px&quot;&gt;模型规模化&lt;/font&gt;" style="swimlane;html=1;startSize=20;horizontal=1;childLayout=treeLayout;horizontalTree=0;resizable=0;containerType=tree;fillColor=#fa6800;strokeColor=#C73500;" vertex="1" parent="1">
          <mxGeometry x="319" y="150" width="300" height="190" as="geometry" />
        </mxCell>
        <mxCell id="silThLo5Kyy1Nj9krNFx-27" value="&lt;font style=&quot;font-size: 14px&quot;&gt;&lt;b&gt;基于out-of-scope类别的任务拆分&lt;/b&gt;&lt;/font&gt;" style="whiteSpace=wrap;html=1;fillColor=#fa6800;strokeColor=#C73500;" vertex="1" parent="silThLo5Kyy1Nj9krNFx-26">
          <mxGeometry x="90" y="40" width="120" height="40" as="geometry" />
        </mxCell>
        <mxCell id="silThLo5Kyy1Nj9krNFx-28" value="&lt;font style=&quot;font-size: 14px&quot;&gt;&lt;b&gt;动态虚拟类别原型构建&lt;/b&gt;&lt;/font&gt;" style="whiteSpace=wrap;html=1;fillColor=#fa6800;strokeColor=#C73500;" vertex="1" parent="silThLo5Kyy1Nj9krNFx-26">
          <mxGeometry x="20" y="130" width="100" height="40" as="geometry" />
        </mxCell>
        <mxCell id="silThLo5Kyy1Nj9krNFx-29" value="" style="edgeStyle=elbowEdgeStyle;elbow=vertical;html=1;rounded=0;strokeColor=#0B4D6A;" edge="1" parent="silThLo5Kyy1Nj9krNFx-26" source="silThLo5Kyy1Nj9krNFx-27" target="silThLo5Kyy1Nj9krNFx-28">
          <mxGeometry relative="1" as="geometry" />
        </mxCell>
        <mxCell id="silThLo5Kyy1Nj9krNFx-30" value="&lt;font style=&quot;font-size: 14px&quot;&gt;&lt;b&gt;基于局部敏感哈希大规模快速拆分&lt;/b&gt;&lt;/font&gt;" style="whiteSpace=wrap;html=1;fillColor=#fa6800;strokeColor=#C73500;" vertex="1" parent="silThLo5Kyy1Nj9krNFx-26">
          <mxGeometry x="160" y="130" width="120" height="40" as="geometry" />
        </mxCell>
        <mxCell id="silThLo5Kyy1Nj9krNFx-31" value="" style="edgeStyle=elbowEdgeStyle;elbow=vertical;html=1;rounded=0;strokeColor=#0B4D6A;" edge="1" parent="silThLo5Kyy1Nj9krNFx-26" source="silThLo5Kyy1Nj9krNFx-27" target="silThLo5Kyy1Nj9krNFx-30">
          <mxGeometry relative="1" as="geometry" />
        </mxCell>
        <mxCell id="silThLo5Kyy1Nj9krNFx-36" value="&lt;font style=&quot;font-size: 16px&quot;&gt;数据选择&lt;/font&gt;" style="swimlane;html=1;startSize=20;horizontal=1;childLayout=treeLayout;horizontalTree=0;resizable=0;containerType=tree;fillColor=#e3c800;strokeColor=#B09500;" vertex="1" parent="1">
          <mxGeometry x="319" y="670" width="280" height="190" as="geometry" />
        </mxCell>
        <mxCell id="silThLo5Kyy1Nj9krNFx-37" value="&lt;font style=&quot;font-size: 14px&quot;&gt;&lt;b&gt;数据重赋权&lt;/b&gt;&lt;/font&gt;" style="whiteSpace=wrap;html=1;fillColor=#e3c800;strokeColor=#B09500;" vertex="1" parent="silThLo5Kyy1Nj9krNFx-36">
          <mxGeometry x="90" y="40" width="100" height="40" as="geometry" />
        </mxCell>
        <mxCell id="silThLo5Kyy1Nj9krNFx-38" value="&lt;font style=&quot;font-size: 14px&quot;&gt;&lt;b&gt;基于注意力机制的数据重赋权&lt;/b&gt;&lt;/font&gt;" style="whiteSpace=wrap;html=1;fillColor=#e3c800;strokeColor=#B09500;" vertex="1" parent="silThLo5Kyy1Nj9krNFx-36">
          <mxGeometry x="20" y="130" width="100" height="40" as="geometry" />
        </mxCell>
        <mxCell id="silThLo5Kyy1Nj9krNFx-39" value="" style="edgeStyle=elbowEdgeStyle;elbow=vertical;html=1;rounded=0;strokeColor=#0B4D6A;" edge="1" parent="silThLo5Kyy1Nj9krNFx-36" source="silThLo5Kyy1Nj9krNFx-37" target="silThLo5Kyy1Nj9krNFx-38">
          <mxGeometry relative="1" as="geometry" />
        </mxCell>
        <mxCell id="silThLo5Kyy1Nj9krNFx-40" value="&lt;font style=&quot;font-size: 14px&quot;&gt;&lt;b&gt;基于鲁棒性损失的数据重赋权&lt;/b&gt;&lt;/font&gt;" style="whiteSpace=wrap;html=1;fillColor=#e3c800;strokeColor=#B09500;" vertex="1" parent="silThLo5Kyy1Nj9krNFx-36">
          <mxGeometry x="160" y="130" width="100" height="40" as="geometry" />
        </mxCell>
        <mxCell id="silThLo5Kyy1Nj9krNFx-41" value="" style="edgeStyle=elbowEdgeStyle;elbow=vertical;html=1;rounded=0;strokeColor=#0B4D6A;" edge="1" parent="silThLo5Kyy1Nj9krNFx-36" source="silThLo5Kyy1Nj9krNFx-37" target="silThLo5Kyy1Nj9krNFx-40">
          <mxGeometry relative="1" as="geometry" />
        </mxCell>
        <mxCell id="silThLo5Kyy1Nj9krNFx-43" value="&lt;font style=&quot;font-size: 16px&quot;&gt;&lt;b&gt;真实数据的问题&lt;/b&gt;&lt;/font&gt;" style="text;html=1;strokeColor=#6D1F00;fillColor=#a0522d;align=center;verticalAlign=middle;whiteSpace=wrap;rounded=0;fontColor=#ffffff;" vertex="1" parent="1">
          <mxGeometry x="-1" y="940" width="121" height="50" as="geometry" />
        </mxCell>
        <mxCell id="silThLo5Kyy1Nj9krNFx-49" value="" style="shape=singleArrow;direction=north;whiteSpace=wrap;html=1;fillColor=#a0522d;strokeColor=#6D1F00;fontColor=#ffffff;" vertex="1" parent="1">
          <mxGeometry x="444" y="620" width="30" height="40" as="geometry" />
        </mxCell>
        <mxCell id="silThLo5Kyy1Nj9krNFx-50" value="" style="shape=singleArrow;direction=north;whiteSpace=wrap;html=1;fillColor=#a0522d;strokeColor=#6D1F00;fontColor=#ffffff;" vertex="1" parent="1">
          <mxGeometry x="444" y="360" width="30" height="40" as="geometry" />
        </mxCell>
        <mxCell id="silThLo5Kyy1Nj9krNFx-59" value="" style="verticalLabelPosition=bottom;verticalAlign=top;html=1;shape=mxgraph.basic.frame;dx=10;fillColor=#a0522d;strokeColor=#6D1F00;fontColor=#ffffff;" vertex="1" parent="1">
          <mxGeometry x="119" y="110" width="550" height="800" as="geometry" />
        </mxCell>
        <mxCell id="silThLo5Kyy1Nj9krNFx-60" value="" style="strokeWidth=5;html=1;shape=mxgraph.flowchart.annotation_2;align=left;labelPosition=right;pointerEvents=1;fillColor=#a0522d;labelBorderColor=#000000;strokeColor=#6D1F00;fontColor=#ffffff;" vertex="1" parent="1">
          <mxGeometry x="199" y="230" width="50" height="520" as="geometry" />
        </mxCell>
        <mxCell id="silThLo5Kyy1Nj9krNFx-62" value="&lt;font style=&quot;font-size: 16px&quot;&gt;模型层&lt;/font&gt;" style="text;html=1;strokeColor=none;fillColor=none;align=center;verticalAlign=middle;whiteSpace=wrap;rounded=0;fontStyle=1;" vertex="1" parent="1">
          <mxGeometry x="259" y="210" width="51" height="20" as="geometry" />
        </mxCell>
        <mxCell id="silThLo5Kyy1Nj9krNFx-64" value="表示层" style="text;html=1;strokeColor=none;fillColor=none;align=center;verticalAlign=middle;whiteSpace=wrap;rounded=0;fontSize=16;fontStyle=1;" vertex="1" parent="1">
          <mxGeometry x="259" y="475" width="51" height="20" as="geometry" />
        </mxCell>
        <mxCell id="silThLo5Kyy1Nj9krNFx-67" value="数据层" style="text;html=1;strokeColor=none;fillColor=none;align=center;verticalAlign=middle;whiteSpace=wrap;rounded=0;fontSize=16;fontStyle=1;" vertex="1" parent="1">
          <mxGeometry x="250" y="735" width="50" height="20" as="geometry" />
        </mxCell>
        <mxCell id="silThLo5Kyy1Nj9krNFx-68" value="&lt;font style=&quot;font-size: 16px;&quot;&gt;小样本迁移元学习&lt;/font&gt;" style="text;html=1;strokeColor=none;fillColor=none;align=center;verticalAlign=middle;whiteSpace=wrap;rounded=0;fontSize=16;fontStyle=1" vertex="1" parent="1">
          <mxGeometry x="149" y="460" width="71" height="20" as="geometry" />
        </mxCell>
        <mxCell id="silThLo5Kyy1Nj9krNFx-69" value="" style="endArrow=none;dashed=1;html=1;dashPattern=1 3;strokeWidth=2;strokeColor=#3A5431;fillColor=#6d8764;" edge="1" parent="1">
          <mxGeometry width="50" height="50" relative="1" as="geometry">
            <mxPoint x="458.28999999999996" y="935" as="sourcePoint" />
            <mxPoint x="458.28999999999996" y="165" as="targetPoint" />
          </mxGeometry>
        </mxCell>
        <mxCell id="silThLo5Kyy1Nj9krNFx-70" value="" style="endArrow=none;dashed=1;html=1;dashPattern=1 3;strokeWidth=2;strokeColor=#B09500;fillColor=#e3c800;" edge="1" parent="1">
          <mxGeometry width="50" height="50" relative="1" as="geometry">
            <mxPoint x="738.29" y="920" as="sourcePoint" />
            <mxPoint x="738.29" y="150" as="targetPoint" />
          </mxGeometry>
        </mxCell>
        <mxCell id="silThLo5Kyy1Nj9krNFx-72" value="" style="endArrow=none;dashed=1;html=1;dashPattern=1 3;strokeWidth=2;strokeColor=#B09500;fillColor=#e3c800;" edge="1" parent="1">
          <mxGeometry width="50" height="50" relative="1" as="geometry">
            <mxPoint x="38.28999999999999" y="934" as="sourcePoint" />
            <mxPoint x="38.28999999999999" y="164" as="targetPoint" />
          </mxGeometry>
        </mxCell>
      </root>
    </mxGraphModel>
  </diagram>
</mxfile>
